# xmcd
#
# Track frame offsets: 
#        150
#        22323
#        43027
#
# Disc length: 882 seconds
#
# Revision: 0
# Processed by: cddbd v1.5.2PL0 Copyright (c) Steve Scherf et al.
# Submitted via: ExactAudioCopy v0.99pb4
#
DISCID=23037003
DTITLE=Erja Lyytinen - One More Time
DYEAR=2004
DGENRE=Blues
TTITLE0=One More Time
TTITLE1=No Love, No Tenderness
TTITLE2=I Just Came Up With A New Song
EXTD=
EXTT0=
EXTT1=
EXTT2=
PLAYORDER=
